<?xml version="1.0" standalone="no"?><!DOCTYPE svg PUBLIC "-//W3C//DTD SVG 1.1//EN" "http://www.w3.org/Graphics/SVG/1.1/DTD/svg11.dtd"><svg t="1617471356989" class="icon" viewBox="0 0 1024 1024" version="1.1" xmlns="http://www.w3.org/2000/svg" p-id="4097" xmlns:xlink="http://www.w3.org/1999/xlink" width="24" height="24"><defs><style type="text/css"></style></defs><path d="M160 448q-14.016 0-23.008-8.992T128 416V160q0-14.016 8.992-23.008T160 128h256q14.016 0 23.008 8.992T448 160v256q0 14.016-8.992 23.008T416 448H160z m448 0q-14.016 0-23.008-8.992T576 416V160q0-14.016 8.992-23.008T608 128h256q14.016 0 23.008 8.992T896 160v256q0 14.016-8.992 23.008T864 448h-256zM160 896q-14.016 0-23.008-8.992T128 864v-256q0-14.016 8.992-23.008T160 576h256q14.016 0 23.008 8.992T448 608v256q0 14.016-8.992 23.008T416 896H160z m448 0q-14.016 0-23.008-8.992T576 864v-256q0-14.016 8.992-23.008T608 576h256q14.016 0 23.008 8.992T896 608v256q0 14.016-8.992 23.008T864 896h-256z" p-id="4098"></path></svg>