<svg t="1617442976982" class="icon" viewBox="0 0 1024 1024" version="1.1" xmlns="http://www.w3.org/2000/svg" p-id="81425" width="24" height="24"><path d="M763.733333 741.973333c-11.093333-34.133333-43.093333-59.306667-81.066666-59.306666h-42.666667v-128a42.666667 42.666667 0 0 0-42.666667-42.666667H341.333333v-85.333333h85.333334a42.666667 42.666667 0 0 0 42.666666-42.666667V298.666667h85.333334a85.333333 85.333333 0 0 0 85.333333-85.333334v-17.493333a340.650667 340.650667 0 0 1 123.733333 546.133333M469.333333 850.346667c-168.533333-20.906667-298.666667-164.266667-298.666666-338.346667 0-26.453333 3.413333-52.053333 8.96-76.373333L384 640v42.666667a85.333333 85.333333 0 0 0 85.333333 85.333333m42.666667-682.666667A426.666667 426.666667 0 0 0 85.333333 512a426.666667 426.666667 0 0 0 426.666667 426.666667 426.666667 426.666667 0 0 0 426.666667-426.666667A426.666667 426.666667 0 0 0 512 85.333333z" fill="" p-id="81426"></path></svg>